<svg width="39" height="45" viewBox="0 0 39 45" fill="none" xmlns="http://www.w3.org/2000/svg">
<path d="M0.712 45L13.32 24.968C11.144 24.328 9.20267 23.304 7.496 21.896C5.832 20.488 4.50933 18.7387 3.528 16.648C2.58933 14.5573 2.12 12.1467 2.12 9.416V0.199997H9.736V10.056C9.736 11.5493 10.0773 12.9573 10.76 14.28C11.4853 15.6027 12.4667 16.6907 13.704 17.544C14.9413 18.3547 16.3707 18.8453 17.992 19.016L29.64 0.199997H38.28L25.928 19.592C28.5307 20.0613 30.7707 21.0213 32.648 22.472C34.5253 23.88 35.9547 25.672 36.936 27.848C37.9173 29.9813 38.408 32.4133 38.408 35.144V45H30.792V34.632C30.792 32.1147 29.96 30.024 28.296 28.36C26.6747 26.6533 24.3493 25.8 21.32 25.8L9.352 45H0.712Z" fill="white"/>
</svg>
